<?xml version="1.0" encoding="UTF-8"?>
<svg id="Ebene_1" data-name="Ebene 1" xmlns="http://www.w3.org/2000/svg" viewBox="0 0 1280.56 1280.56">
  <defs>
    <style>
      .cls-1 {
        fill: #eae8ed;
      }

      .cls-2 {
        fill: #031a43;
      }

      .cls-3 {
        fill: #b31428;
      }
    </style>
  </defs>
  <path class="cls-2" d="M1.25,0h1279.31s0,1280.56,0,1280.56H1.25V0ZM728.21,839.3c-49.41,11.84-98.01,13.57-145.37.8-93.54-23.91-167.78-91.2-202.14-181.2-20.92-54.79-25-113.91-11.35-171.41,17.72-74.64,62.33-139.35,126.23-181.48.7-3.65,2.94-4.8,6.62-4.24,46.88-30.13,100.16-43.55,155.32-44.79-104.01-10.36-202.11,38.81-262.01,122.71-32.55,46.12-51.51,100.11-55.46,156.78-5.77,82.69,24.57,167.5,81.85,226.03l11.47,11.72c58.98,56.15,138.38,85.15,220.03,80.58,26.06-1.56,51.73-5.78,74.82-15.49ZM693.82,404.32l7.88-16.9,17.29-8.28-16.86-7.99-8.58-16.58-8.09,16.25-16.37,8.68c5.54,4.13,14.88,3.47,17.26,8.65l7.46,16.18ZM540.88,462.96l4.82-10.45,10.9-5.82c-4.46-1.65-9.78-1.94-11.51-5.6l-4.28-9.02-5.28,10.17-10.13,5.22,10.65,5.17,4.84,10.33ZM710.43,502.05c-6.04-2.61-7.06-5.02-10.36-10.28-1.36,5.94-3.3,7.87-8.99,10.08,8.96,3.59,7.32,8.99,9.39,9.02,2.78.03.05-6.16,9.96-8.82ZM952.41,777.2l-460.59.18c5.48,5.32,9.57,6.73,14.85,10.05l517.42.02c3.7,0,5.3-1.85,5.81-4.33.45-2.2-1.23-5.59-4.11-5.6l-48.21-.2c14.38-14.84,16.18-36.76,5.27-54.39-8.2-13.25-19.21-23.61-32.06-32.76l-75.73-53.94-28.44-16.89c-30.21-16.03-63.36-26.19-98.43-26.21l-359.33-.25c-3.65,0-4.2,3.55-4.01,5.45s.66,4.46,3.97,4.46l361.95.4c36.5.04,70.95,13.07,101.93,30.65l-75.13.87c-2.01.02-3.81,1.14-4.38,2.19s-1.51,4.56-.47,5.7c21.45,23.36,59.22,54.76,90.53,54.92l81.23.43c17.21,12.44,37.63,31,35.39,52.22-1.51,14.33-11.53,27.02-27.46,27.03ZM903.02,726.09c4.07,0,4.32-4.74,3.79-6.46-.59-1.94-2.6-3.63-6.35-3.63l-466.87.05c1.25,4.49,3.5,7.37,6.86,10.12l462.57-.07ZM380.14,972.85l21.6.68c.97,6.27-1.28,12.2-6.33,16.39-11.67,9.65-28.68,7.87-38.3-4.53-8.98-11.59-9.15-29.13.82-40.66,11.18-12.93,32.06-12.23,42.57.55,3.49-2.18,5.49-5,6.63-8.12-14.3-15.97-43.19-15.34-57.78.55-11.4,12.41-13.7,31.1-6.45,46.49-.78,3.57.32,5.99,3.83,6.88,13.88,17.84,40.75,20.55,57.4,5.05,8.83-8.22,9.9-20.18,9.03-31.6l-33.32.08c-1.02,1.51-1.41,7.23.3,8.25ZM212.02,1003.97c2.78,1.86,7.65.98,10.45.17l.07-77-10.61-.13-.68,57.16-40.87-56.75c-3.79-.74-7.36-.4-11.04-.21v77.5s10.53-.04,10.53-.04l.85-54.54c-.14-2.46,2.3-2.45,1.89-.03-.24,2.17-.02,4.71.77,4.88l3.91.84,34.74,48.15ZM289.25,926.83h-11.48v77.97h11.48v-77.97ZM520.24,1003.18l.17-76.02-11.15-.02-.33,32.67-34.87.23-.26-32.86-11.06.29.2,76.54c4.02,1.15,7.09,1.15,10.72.31l.26-34.3,35.1.12.67,33.88c2.72,1.3,9.41,1.63,10.55-.84ZM598.54,1003.78l-.07-67.14,21.04-.03c.39-3.11.45-5.6-.13-9.38l-52.6-.17-.1,9.55,21.12.11.09,67.42c3.97,1.09,7.27,1.28,10.66-.36ZM861.67,1002.18c7.85-4.42,10.26-12.96,9.49-20.3-.79-7.51-6.01-12.75-13.38-15.95l-17.34-7.53c-3.65-1.59-5.46-6.04-4.82-9.71.45-2.58,3.12-5.73,6.44-7.3,6.93-3.28,14.4.48,20.25,5.51,2.39-.42,6.79-5.02,5.86-7.21-5.86-8.1-16.35-9.62-25.45-8.36-9.96,1.38-16.72,8.36-17.48,17.45-2.25,27.05,41.92,18.89,34.52,40.62-.95,2.78-4.43,5.68-8.74,6.67-8.71,2.01-17.3-2.11-22.9-9.12-3.5,1.29-6.4,3.59-7.64,7.35,9.65,11.7,27.61,15.51,41.19,7.86ZM1045.22,968.39c0-20.87-16.9-37.78-37.75-37.78s-37.75,16.92-37.75,37.78,16.9,37.78,37.75,37.78,37.75-16.92,37.75-37.78ZM716.4,932.64l-21.37,55.08-22.87-55.2-11.03-.02,29.23,72.13,8.76.06,28.52-72.08c-3.74-.47-7.21-.64-11.24.03ZM767.67,932.34l-.02,72.55h10.1s.02-72.55.02-72.55h-10.1ZM915.48,932.19l-.03,72.98h10.31s.03-72.98.03-72.98h-10.31ZM1147.48,1004.57l-.06-72.25h-9.78s-.54,53.11-.54,53.11l-37.36-52.88-10.35-.24.02,72.5,9.94.11.6-53.98,37.63,53.56c3.49.64,6.71.87,9.9.07Z"/>
  <rect class="cls-1" x="0" y="0" width="1.25" height="1280.56"/>
  <path class="cls-1" d="M212.02,1003.97l-34.74-48.15-3.91-.84c-.78-.17-1.01-2.71-.77-4.88.41-2.42-2.04-2.43-1.89.03l-.85,54.54-10.52.04v-77.5c3.68-.2,7.25-.54,11.04.21l40.87,56.75.68-57.16,10.61.13-.07,77c-2.8.81-7.67,1.69-10.45-.17Z"/>
  <path class="cls-1" d="M380.14,972.85c-1.71-1.02-1.32-6.74-.3-8.25l33.32-.08c.87,11.42-.21,23.39-9.03,31.6-16.65,15.49-43.52,12.79-57.4-5.05-3.51-.89-4.61-3.31-3.83-6.88-7.24-15.39-4.95-34.09,6.45-46.49,14.59-15.88,43.48-16.52,57.78-.55-1.14,3.12-3.15,5.94-6.63,8.12-10.51-12.78-31.39-13.47-42.57-.55-9.97,11.53-9.8,29.07-.82,40.66,9.61,12.4,26.63,14.19,38.3,4.53,5.06-4.19,7.3-10.11,6.33-16.39l-21.6-.68Z"/>
  <path class="cls-3" d="M1147.48,1004.57c-3.2.8-6.41.57-9.9-.07l-37.63-53.56-.6,53.98-9.94-.11-.02-72.5,10.35.24,37.36,52.88.54-53.11h9.78s.06,72.25.06,72.25Z"/>
  <path class="cls-3" d="M1045.22,968.39c0,20.87-16.9,37.78-37.75,37.78s-37.75-16.92-37.75-37.78,16.9-37.78,37.75-37.78,37.75,16.92,37.75,37.78ZM1035.12,968.31c0-15.27-12.37-27.65-27.63-27.65s-27.63,12.38-27.63,27.65,12.37,27.65,27.63,27.65,27.63-12.38,27.63-27.65Z"/>
  <path class="cls-1" d="M520.24,1003.18c-1.14,2.47-7.83,2.14-10.55.84l-.67-33.88-35.1-.12-.26,34.3c-3.62.84-6.69.84-10.72-.31l-.2-76.54,11.06-.29.26,32.86,34.87-.23.33-32.67,11.15.02-.17,76.02Z"/>
  <path class="cls-3" d="M861.67,1002.18c-13.58,7.64-31.54,3.83-41.19-7.86,1.24-3.76,4.13-6.06,7.64-7.35,5.6,7.01,14.19,11.13,22.9,9.12,4.31-1,7.8-3.9,8.74-6.67,7.4-21.73-36.77-13.58-34.52-40.62.76-9.09,7.51-16.07,17.48-17.45,9.11-1.26,19.59.26,25.45,8.36.94,2.19-3.46,6.79-5.86,7.21-5.85-5.02-13.33-8.79-20.25-5.51-3.32,1.57-5.99,4.72-6.44,7.3-.64,3.66,1.16,8.12,4.82,9.71l17.34,7.53c7.37,3.2,12.59,8.44,13.38,15.95.77,7.35-1.64,15.89-9.49,20.3Z"/>
  <path class="cls-3" d="M716.4,932.64c4.03-.67,7.5-.5,11.24-.03l-28.52,72.08-8.76-.06-29.23-72.13,11.03.02,22.87,55.2,21.37-55.08Z"/>
  <path class="cls-1" d="M598.54,1003.78c-3.39,1.64-6.7,1.45-10.66.36l-.09-67.42-21.12-.11.1-9.55,52.6.17c.58,3.78.52,6.27.13,9.38l-21.04.03.07,67.14Z"/>
  <rect class="cls-1" x="277.77" y="926.83" width="11.48" height="77.97"/>
  <rect class="cls-3" x="736.43" y="963.56" width="72.55" height="10.1" transform="translate(-196.1183 1741.0575) rotate(-89.9841)"/>
  <rect class="cls-3" x="884.13" y="963.53" width="72.98" height="10.31" transform="translate(-48.4514 1888.8956) rotate(-89.9758)"/>
  <ellipse class="cls-2" cx="1007.49" cy="968.31" rx="27.63" ry="27.65"/>
  <g>
    <path class="cls-1" d="M728.21,839.3c-23.09,9.71-48.76,13.93-74.82,15.49-81.64,4.58-161.04-24.42-220.03-80.58l-11.47-11.72c-57.28-58.53-87.62-143.34-81.85-226.03,3.95-56.67,22.91-110.66,55.46-156.78,59.9-83.9,158-133.06,262.01-122.71-55.16,1.24-108.44,14.65-155.32,44.79-3.67-.56-5.92.59-6.62,4.24-63.9,42.13-108.52,106.84-126.23,181.48-13.65,57.51-9.56,116.62,11.35,171.41,34.36,90,108.6,157.29,202.14,181.2,47.37,12.77,95.96,11.03,145.37-.8Z"/>
    <path class="cls-1" d="M952.41,777.2c15.92,0,25.95-12.69,27.46-27.03,2.23-21.22-18.19-39.78-35.39-52.22l-81.23-.43c-31.31-.16-69.08-31.57-90.53-54.92-1.04-1.14-.11-4.64.47-5.7s2.37-2.17,4.38-2.19l75.13-.87c-30.98-17.58-65.43-30.61-101.93-30.65l-361.95-.4c-3.31,0-3.79-2.55-3.97-4.46s.36-5.46,4.01-5.45l359.33.25c35.07.02,68.22,10.18,98.43,26.21l28.44,16.89,75.73,53.94c12.86,9.16,23.86,19.51,32.06,32.76,10.91,17.62,9.11,39.55-5.27,54.39l48.21.2c2.89.01,4.57,3.4,4.11,5.6-.51,2.49-2.11,4.33-5.81,4.33l-517.42-.02c-5.28-3.32-9.36-4.73-14.85-10.05l460.59-.18ZM929.85,687.34l-59.68-42.89-82.48.07c14.32,14.04,29.79,26.06,47.43,35.2,11.66,6.04,23.8,8.5,36.94,8.34l57.79-.71Z"/>
    <path class="cls-3" d="M903.02,726.09l-462.57.07c-3.36-2.75-5.61-5.63-6.86-10.12l466.87-.05c3.76,0,5.76,1.69,6.35,3.63.52,1.72.28,6.46-3.79,6.46Z"/>
    <path class="cls-1" d="M693.82,404.32l-7.46-16.18c-2.39-5.17-11.73-4.51-17.26-8.65l16.37-8.68,8.09-16.25,8.58,16.58,16.86,7.99-17.29,8.28-7.88,16.9Z"/>
    <path class="cls-1" d="M540.88,462.96l-4.84-10.33-10.65-5.17,10.13-5.22,5.28-10.17,4.28,9.02c1.74,3.66,7.05,3.95,11.51,5.6l-10.9,5.82-4.82,10.45Z"/>
    <path class="cls-1" d="M710.43,502.05c-9.91,2.67-7.17,8.85-9.96,8.82-2.08-.02-.43-5.42-9.39-9.02,5.7-2.21,7.63-4.14,8.99-10.08,3.29,5.25,4.32,7.66,10.36,10.28Z"/>
    <path class="cls-2" d="M929.85,687.34l-57.79.71c-13.14.16-25.28-2.3-36.94-8.34-17.65-9.14-33.11-21.16-47.43-35.2l82.48-.07,59.68,42.89Z"/>
  </g>
</svg>